<svg id="Layer_1" enable-background="new 0 0 512 512" viewBox="0 0 512 512" xmlns="http://www.w3.org/2000/svg"><g id="Layer_2_00000075858709278006356620000005260893881904833152_"><g id="pause" fill="#ff2147"><path d="m92.4 0h69c26.6 0 48.2 21.6 48.2 48.2v415.7c0 26.6-21.6 48.2-48.2 48.2h-69c-26.6 0-48.2-21.6-48.2-48.2v-415.7c.1-26.6 21.6-48.2 48.2-48.2z"/><path d="m350.6 0h69c26.6 0 48.2 21.6 48.2 48.2v415.7c0 26.6-21.6 48.2-48.2 48.2h-69c-26.6 0-48.2-21.6-48.2-48.2v-415.7c0-26.6 21.6-48.2 48.2-48.2z"/></g></g></svg>