<?xml version="1.0" encoding="UTF-8" standalone="no"?>
<svg
   xmlns:dc="http://purl.org/dc/elements/1.1/"
   xmlns:cc="http://creativecommons.org/ns#"
   xmlns:rdf="http://www.w3.org/1999/02/22-rdf-syntax-ns#"
   xmlns:svg="http://www.w3.org/2000/svg"
   xmlns="http://www.w3.org/2000/svg"
   id="SVGRoot"
   version="1.1"
   viewBox="0 0 400 270"
   height="270"
   width="400">
  <defs
     id="defs8465" />
  <metadata
     id="metadata8468">
    <rdf:RDF>
      <cc:Work
         rdf:about="">
        <dc:format>image/svg+xml</dc:format>
        <dc:type
           rdf:resource="http://purl.org/dc/dcmitype/StillImage" />
        <dc:title></dc:title>
      </cc:Work>
    </rdf:RDF>
  </metadata>
  <g
     transform="translate(-332.9297,-102.83854)"
     id="layer1">
    <path
       style="fill:#1c2851;fill-opacity:1;fill-rule:nonzero;stroke:none;stroke-width:6.93279934"
       d="m 518.52249,292.67805 -32.71416,-112.1434 -32.71417,112.1434 z m 0,0"
       id="path1825" />
    <path
       style="fill:#1c2851;fill-opacity:1;fill-rule:nonzero;stroke:none;stroke-width:6.93279934"
       d="m 612.76524,292.67805 -32.71419,-112.1434 -32.71415,112.1434 z m 0,0"
       id="path1827" />
    <path
       style="fill:#1c2851;fill-opacity:1;fill-rule:nonzero;stroke:none;stroke-width:6.93279934"
       d="m 500.21555,102.83854 32.71415,112.14344 32.71415,-112.14344 z m 0,0"
       id="path1829" />
    <path
       style="fill:#73828a;fill-opacity:1;fill-rule:nonzero;stroke:none;stroke-width:6.93279934"
       d="m 333.12429,336.52261 v 6.68908 h 10.42629 v 28.9769 h 7.6369 v -28.9769 h 10.39921 v -6.68908 z m 0,0"
       id="path1831" />
    <path
       style="fill:#73828a;fill-opacity:1;fill-rule:nonzero;stroke:none;stroke-width:6.93279934"
       d="m 388.45123,347.97795 c 0,-2.95185 -2.3019,-4.76626 -5.30791,-4.76626 h -8.01605 v 9.61379 h 8.01605 c 3.006,0 5.30791,-1.81444 5.30791,-4.84753 m -0.75824,24.21064 -7.01405,-12.67403 h -5.55167 v 12.67403 h -7.60981 v -35.66598 h 16.68204 c 7.44738,0 12.05115,4.87462 12.05115,11.50954 0,6.25572 -4.00803,9.66795 -7.85354,10.58877 l 8.07019,13.56767 z m 0,0"
       id="path1833" />
    <path
       style="fill:#73828a;fill-opacity:1;fill-rule:nonzero;stroke:none;stroke-width:6.93279934"
       d="m 401.63983,336.52261 h 7.6098 v 35.66598 h -7.6098 z m 0,0"
       id="path1835" />
    <path
       style="fill:#73828a;fill-opacity:1;fill-rule:nonzero;stroke:none;stroke-width:6.93279934"
       d="m 439.77019,372.18859 -17.00701,-23.2628 v 23.2628 h -7.6098 v -35.66598 h 7.82649 l 16.51952,22.42327 v -22.42327 h 7.58274 v 35.66598 z m 0,0"
       id="path1837" />
    <path
       style="fill:#73828a;fill-opacity:1;fill-rule:nonzero;stroke:none;stroke-width:6.93279934"
       d="m 453.01296,336.52261 h 7.60981 v 35.66598 h -7.60981 z m 0,0"
       id="path1839" />
    <path
       style="fill:#73828a;fill-opacity:1;fill-rule:nonzero;stroke:none;stroke-width:6.93279934"
       d="m 476.95273,372.18859 v -28.9769 h -10.42622 v -6.68908 h 28.46235 v 6.68908 h -10.37211 v 28.9769 z m 0,0"
       id="path1841" />
    <path
       style="fill:#73828a;fill-opacity:1;fill-rule:nonzero;stroke:none;stroke-width:6.93279934"
       d="m 512.375,372.18859 v -14.5968 l -13.70305,-21.06918 h 8.66593 l 8.8285,14.27182 8.82853,-14.27182 h 7.88062 l -13.64896,21.06918 0.75832,14.5968 z m 0,0"
       id="path1843" />
    <path
       style="fill:#73828a;fill-opacity:1;fill-rule:nonzero;stroke:none;stroke-width:6.93279934"
       d="m 582.54257,372.18859 v -25.72721 l -10.04721,25.72721 h -3.30386 l -10.07422,-25.72721 v 25.72721 h -7.5828 v -35.66598 h 10.64297 l 8.66602,22.31493 8.66594,-22.31493 h 10.69711 v 35.66598 z m 0,0"
       id="path1845" />
    <path
       style="fill:#73828a;fill-opacity:1;fill-rule:nonzero;stroke:none;stroke-width:6.93279934"
       d="M 596.13734,372.18859 V 336.52261 H 621.377 v 6.68908 h -17.65695 v 7.47436 h 17.27784 v 6.68909 h -17.27784 v 8.12439 H 621.377 v 6.68906 z m 0,0"
       id="path1847" />
    <path
       style="fill:#73828a;fill-opacity:1;fill-rule:nonzero;stroke:none;stroke-width:6.93279934"
       d="m 637.7341,372.18859 v -28.9769 h -10.45335 v -6.68908 h 28.46237 v 6.68908 h -10.37208 v 28.9769 z m 0,0"
       id="path1849" />
    <path
       style="fill:#73828a;fill-opacity:1;fill-rule:nonzero;stroke:none;stroke-width:6.93279934"
       d="m 682.58066,347.97795 c 0,-2.95185 -2.3019,-4.76626 -5.30796,-4.76626 h -8.01601 v 9.61379 h 8.01601 c 3.00606,0 5.30796,-1.81444 5.30796,-4.84753 m -0.7583,24.21064 -6.98694,-12.67403 h -5.57873 v 12.67403 h -7.58277 v -35.66598 h 16.68206 c 7.44732,0 12.05116,4.87462 12.05116,11.50954 0,6.25572 -4.03515,9.66795 -7.88066,10.58877 l 8.07024,13.56767 z m 0,0"
       id="path1851" />
    <path
       style="fill:#73828a;fill-opacity:1;fill-rule:nonzero;stroke:none;stroke-width:6.93279934"
       d="m 724.93574,354.39625 c 0,-6.68909 -4.22469,-11.7262 -10.8054,-11.7262 -6.63492,0 -10.85966,5.03711 -10.85966,11.7262 0,6.60778 4.22474,11.69909 10.85966,11.69909 6.58071,0 10.8054,-5.09131 10.8054,-11.69909 m -29.46443,0 c 0,-10.75129 7.85357,-18.46946 18.65903,-18.46946 10.75118,0 18.60477,7.71817 18.60477,18.46946 0,10.7512 -7.85359,18.44229 -18.60477,18.44229 -10.80546,0 -18.65903,-7.69109 -18.65903,-18.44229"
       id="path1853" />
  </g>
</svg>
